<?xml version="1.0" encoding="UTF-8" standalone="no"?>
<!DOCTYPE svg PUBLIC "-//W3C//DTD SVG 1.1//EN" "http://www.w3.org/Graphics/SVG/1.1/DTD/svg11.dtd">
<!-- Generated by Microsoft Visio, SVG Export Network.svg Network -->
<svg xmlns="http://www.w3.org/2000/svg" xmlns:xlink="http://www.w3.org/1999/xlink" xmlns:ev="http://www.w3.org/2001/xml-events"
		xmlns:v="http://schemas.microsoft.com/visio/2003/SVGExtensions/" width="11.6929in" height="8.26772in"
		viewBox="0 0 841.89 595.276" xml:space="preserve" color-interpolation-filters="sRGB" class="st7">
	<v:documentProperties v:langID="2057" v:metric="true" v:viewMarkup="false">
		<v:userDefs>
			<v:ud v:nameU="msvNoAutoConnect" v:val="VT0(1):26"/>
		</v:userDefs>
	</v:documentProperties>

	<style type="text/css">
	<![CDATA[
		.st1 {fill:#ffffff;stroke:#a5a5a5;stroke-linecap:round;stroke-linejoin:round;stroke-width:2}
		.st2 {fill:#5c5c5c;font-family:Calibri;font-size:0.833336em}
		.st3 {stroke:#a5a5a5;stroke-dasharray:21,15;stroke-linecap:round;stroke-linejoin:round;stroke-width:3}
		.st4 {stroke:#ffc000;stroke-linecap:round;stroke-linejoin:round;stroke-width:2.25}
		.st5 {stroke:#fdbf01;stroke-linecap:round;stroke-linejoin:round;stroke-width:2}
		.st6 {fill:#555555;font-family:Calibri;font-size:0.833336em}
		.st7 {fill:none;fill-rule:evenodd;font-size:12px;overflow:visible;stroke-linecap:square;stroke-miterlimit:3}
	]]>
	</style>

	<g v:mID="0" v:index="1" v:groupContext="foregroundPage">
		<v:userDefs>
			<v:ud v:nameU="msvThemeOrder" v:val="VT0(0):26"/>
		</v:userDefs>
		<title>Network</title>
		<v:pageProperties v:drawingScale="0.0393701" v:pageScale="0.0393701" v:drawingUnits="24" v:shadowOffsetX="8.50394"
				v:shadowOffsetY="-8.50394"/>
		<v:layer v:name="Connector" v:index="0"/>
		<g id="shape2-1" v:mID="2" v:groupContext="shape" transform="translate(232.441,-36.8504)">
			<title>Rectangle.2</title>
			<desc>Environment (ENV) local, team, test, live</desc>
			<v:userDefs>
				<v:ud v:nameU="visVersion" v:val="VT0(15):26"/>
			</v:userDefs>
			<v:textBlock v:margins="rect(4,4,4,4)" v:tabSpace="42.5197" v:verticalAlign="0"/>
			<v:textRect cx="295.724" cy="335.019" width="591.45" height="520.514"/>
			<rect x="0" y="74.762" width="591.449" height="520.514" class="st1"/>
			<text x="4" y="87.76" class="st2" v:langID="1033"><v:paragraph/><v:tabList/>Environment (ENV) local, team, test, live</text>		</g>
		<g id="shape10-4" v:mID="10" v:groupContext="shape" transform="translate(283.465,-68.0315)">
			<title>Rectangle.10</title>
			<desc>Frontend</desc>
			<v:userDefs>
				<v:ud v:nameU="visVersion" v:val="VT0(15):26"/>
			</v:userDefs>
			<v:textBlock v:margins="rect(4,4,4,4)" v:tabSpace="42.5197" v:verticalAlign="0"/>
			<v:textRect cx="85.0394" cy="368.504" width="170.08" height="453.543"/>
			<rect x="0" y="141.732" width="170.079" height="453.543" class="st1"/>
			<text x="4" y="154.73" class="st2" v:langID="1033"><v:paragraph/><v:tabList/>Frontend</text>		</g>
		<g id="shape9-7" v:mID="9" v:groupContext="shape" transform="translate(476.22,-70.8661)">
			<title>Rectangle.9</title>
			<desc>Backend</desc>
			<v:userDefs>
				<v:ud v:nameU="visVersion" v:val="VT0(15):26"/>
			</v:userDefs>
			<v:textBlock v:margins="rect(4,4,4,4)" v:tabSpace="42.5197" v:verticalAlign="0"/>
			<v:textRect cx="165.827" cy="368.504" width="331.66" height="453.543"/>
			<rect x="0" y="141.732" width="331.654" height="453.543" class="st1"/>
			<text x="4" y="154.73" class="st2" v:langID="1033"><v:paragraph/><v:tabList/>Backend</text>		</g>
		<g id="shape1-10" v:mID="1" v:groupContext="shape" transform="translate(49.3438,-56.6929)">
			<title>Rectangle</title>
			<desc>Client</desc>
			<v:userDefs>
				<v:ud v:nameU="visVersion" v:val="VT0(15):26"/>
			</v:userDefs>
			<v:textBlock v:margins="rect(4,4,4,4)" v:tabSpace="42.5197" v:verticalAlign="0"/>
			<v:textRect cx="56.6929" cy="354.331" width="113.39" height="481.89"/>
			<rect x="0" y="113.386" width="113.386" height="481.89" class="st1"/>
			<text x="4" y="126.39" class="st2" v:langID="1033"><v:paragraph/><v:tabList/>Client</text>		</g>
		<g id="shape3-13" v:mID="3" v:groupContext="shape" transform="translate(490.841,-364.252)">
			<title>Rectangle.3</title>
			<desc>Env.Store.Domain.tld</desc>
			<v:userDefs>
				<v:ud v:nameU="visVersion" v:val="VT0(15):26"/>
			</v:userDefs>
			<v:textBlock v:margins="rect(4,4,4,4)" v:tabSpace="42.5197"/>
			<v:textRect cx="73.477" cy="569.764" width="146.96" height="51.0236"/>
			<rect x="0" y="544.252" width="146.954" height="51.0236" class="st1"/>
			<text x="30.2" y="572.76" class="st2" v:langID="1033"><v:paragraph v:horizAlign="1"/><v:tabList/>Env.Store.Domain.tld</text>		</g>
		<g id="shape4-16" v:mID="4" v:groupContext="shape" transform="translate(490.841,-293.386)">
			<title>Rectangle.4</title>
			<desc>Env.Store.Domain.tld</desc>
			<v:userDefs>
				<v:ud v:nameU="visVersion" v:val="VT0(15):26"/>
			</v:userDefs>
			<v:textBlock v:margins="rect(4,4,4,4)" v:tabSpace="42.5197"/>
			<v:textRect cx="73.477" cy="569.764" width="146.96" height="51.0236"/>
			<rect x="0" y="544.252" width="146.954" height="51.0236" class="st1"/>
			<text x="30.2" y="572.76" class="st2" v:langID="1033"><v:paragraph v:horizAlign="1"/><v:tabList/>Env.Store.Domain.tld</text>		</g>
		<g id="shape5-19" v:mID="5" v:groupContext="shape" transform="translate(490.841,-435.118)">
			<title>Rectangle.5</title>
			<desc>Env.Identity.Domain.tld</desc>
			<v:userDefs>
				<v:ud v:nameU="visVersion" v:val="VT0(15):26"/>
			</v:userDefs>
			<v:textBlock v:margins="rect(4,4,4,4)" v:tabSpace="42.5197"/>
			<v:textRect cx="73.477" cy="569.764" width="146.96" height="51.0236"/>
			<rect x="0" y="544.252" width="146.954" height="51.0236" class="st1"/>
			<text x="25.28" y="572.76" class="st2" v:langID="1033"><v:paragraph v:horizAlign="1"/><v:tabList/>Env.Identity.Domain.tld</text>		</g>
		<g id="shape6-22" v:mID="6" v:groupContext="shape" transform="translate(490.841,-222.52)">
			<title>Rectangle.6</title>
			<desc>Env.Api.Domain.tld</desc>
			<v:userDefs>
				<v:ud v:nameU="visVersion" v:val="VT0(15):26"/>
			</v:userDefs>
			<v:textBlock v:margins="rect(4,4,4,4)" v:tabSpace="42.5197"/>
			<v:textRect cx="73.477" cy="569.764" width="146.96" height="51.0236"/>
			<rect x="0" y="544.252" width="146.954" height="51.0236" class="st1"/>
			<text x="34.37" y="572.76" class="st2" v:langID="1033"><v:paragraph v:horizAlign="1"/><v:tabList/>Env.Api.Domain.tld</text>		</g>
		<g id="shape7-25" v:mID="7" v:groupContext="shape" transform="translate(646.747,-104.882)">
			<title>Rectangle.7</title>
			<desc>Env.Mongo.Domain.tld</desc>
			<v:userDefs>
				<v:ud v:nameU="visVersion" v:val="VT0(15):26"/>
			</v:userDefs>
			<v:textBlock v:margins="rect(4,4,4,4)" v:tabSpace="42.5197"/>
			<v:textRect cx="73.477" cy="569.764" width="146.96" height="51.0236"/>
			<rect x="0" y="544.252" width="146.954" height="51.0236" class="st1"/>
			<text x="26.51" y="572.76" class="st2" v:langID="1033"><v:paragraph v:horizAlign="1"/><v:tabList/>Env.Mongo.Domain.tld</text>		</g>
		<g id="shape8-28" v:mID="8" v:groupContext="shape" transform="translate(302.86,-107.717)">
			<title>Rectangle.8</title>
			<desc>Env.Proxy.Domain.tld</desc>
			<v:userDefs>
				<v:ud v:nameU="visVersion" v:val="VT0(15):26"/>
			</v:userDefs>
			<v:textBlock v:margins="rect(4,4,4,4)" v:tabSpace="42.5197"/>
			<v:textRect cx="56.6929" cy="403.937" width="113.39" height="382.677"/>
			<rect x="0" y="212.598" width="113.386" height="382.677" class="st1"/>
			<text x="12.86" y="406.94" class="st2" v:langID="1033"><v:paragraph v:horizAlign="1"/><v:tabList/>Env.Proxy.Domain.tld</text>		</g>
		<g id="shape12-31" v:mID="12" v:groupContext="shape" v:layerMember="0" transform="translate(359.552,-113.386)">
			<title>Dynamic connector.12</title>
			<v:userDefs>
				<v:ud v:nameU="visVersion" v:val="VT0(15):26"/>
			</v:userDefs>
			<path d="M0 600.94 L0 623.62 L360.67 623.62 L360.67 603.78" class="st3"/>
		</g>
		<g id="shape13-34" v:mID="13" v:groupContext="shape" v:layerMember="0" transform="translate(416.245,-305.433)">
			<title>Dynamic connector.13</title>
			<v:userDefs>
				<v:ud v:nameU="visVersion" v:val="VT0(15):26"/>
			</v:userDefs>
			<path d="M0 601.65 L12.67 601.65 L12.67 603.07 L59.98 603.07" class="st4"/>
		</g>
		<g id="shape15-37" v:mID="15" v:groupContext="shape" v:layerMember="0" transform="translate(162.73,-291.26)">
			<title>Dynamic connector.15</title>
			<v:userDefs>
				<v:ud v:nameU="visVersion" v:val="VT0(15):26"/>
			</v:userDefs>
			<path d="M0 588.9 L105.1 588.9 L105.1 587.48 L140.13 587.48" class="st4"/>
		</g>
		<g id="group16-40" transform="translate(130.394,382.677) rotate(-90)" v:mID="16" v:groupContext="group">
			<v:custProps>
				<v:cp v:nameU="Manufacturer" v:lbl="Manufacturer" v:type="0" v:format="" v:sortKey="Equipment" v:invis="false"
						v:ask="false" v:langID="1033"/>
				<v:cp v:nameU="ProductNumber" v:lbl="Product Number" v:type="0" v:format="" v:sortKey="Equipment" v:invis="false"
						v:ask="false" v:langID="1033"/>
				<v:cp v:nameU="PartNumber" v:lbl="Part Number" v:type="0" v:format="" v:sortKey="Equipment" v:invis="false"
						v:ask="false" v:langID="1033"/>
				<v:cp v:nameU="ProductDescription" v:lbl="Product Description" v:type="0" v:format="" v:sortKey="Equipment"
						v:invis="false" v:ask="false" v:langID="1033"/>
				<v:cp v:nameU="AssetNumber" v:lbl="Asset Number" v:type="0" v:format="" v:sortKey="Asset" v:invis="false"
						v:ask="false" v:langID="1033"/>
				<v:cp v:nameU="SerialNumber" v:lbl="Serial Number" v:type="0" v:format="" v:sortKey="Asset" v:invis="false"
						v:ask="false" v:langID="1033"/>
				<v:cp v:nameU="Location" v:lbl="Location" v:type="0" v:format="" v:sortKey="Asset" v:invis="false" v:ask="false"
						v:langID="1033"/>
				<v:cp v:nameU="Building" v:lbl="Building" v:type="0" v:format="" v:sortKey="Asset" v:invis="false" v:ask="false"
						v:langID="1033"/>
				<v:cp v:nameU="Room" v:lbl="Room" v:type="0" v:format="" v:sortKey="Asset" v:invis="false" v:ask="false"
						v:langID="1033"/>
				<v:cp v:nameU="Department" v:lbl="Department" v:type="0" v:format="" v:sortKey="" v:invis="false" v:ask="false"
						v:langID="1033"/>
				<v:cp v:nameU="ShapeClass" v:lbl="ShapeClass" v:type="0" v:format="" v:sortKey="" v:invis="true" v:ask="false"
						v:langID="1033" v:val="VT4(Connectivity)"/>
				<v:cp v:nameU="ShapeType" v:lbl="ShapeType" v:type="0" v:format="" v:sortKey="" v:invis="true" v:ask="false"
						v:langID="1033" v:val="VT4(EthernetCable)"/>
				<v:cp v:nameU="NetworkName" v:lbl="Network Name" v:type="0" v:format="" v:sortKey="Network" v:invis="false"
						v:ask="false" v:langID="1033"/>
				<v:cp v:nameU="IPAddress" v:lbl="IP Address" v:type="0" v:format="" v:sortKey="Network" v:invis="false"
						v:ask="false" v:langID="1033"/>
				<v:cp v:nameU="SubnetMask" v:lbl="Subnet Mask" v:type="0" v:format="" v:sortKey="Network" v:invis="false"
						v:ask="false" v:langID="1033"/>
				<v:cp v:nameU="AdminInterface" v:lbl="Administrative Interface" v:type="0" v:format="" v:sortKey="Network"
						v:invis="false" v:ask="false" v:langID="1033"/>
				<v:cp v:nameU="NumberofPorts" v:lbl="Number of Ports" v:type="0" v:format="" v:sortKey="Network" v:invis="false"
						v:ask="false" v:langID="1033"/>
				<v:cp v:nameU="MACAddress" v:lbl="MAC Address" v:type="0" v:format="" v:sortKey="Network" v:invis="false"
						v:ask="false" v:langID="1033"/>
				<v:cp v:nameU="CommunityString" v:lbl="Community String" v:type="0" v:format="" v:sortKey="Network" v:invis="false"
						v:ask="false" v:langID="1033"/>
				<v:cp v:nameU="NetworkDescription" v:lbl="Network Description" v:type="0" v:format="" v:sortKey="Network"
						v:invis="false" v:ask="false" v:langID="1033"/>
			</v:custProps>
			<v:userDefs>
				<v:ud v:nameU="Scale" v:val="VT0(1):26"/>
				<v:ud v:nameU="visVersion" v:val="VT0(15):26"/>
				<v:ud v:nameU="AntiScale" v:val="VT0(1):26"/>
				<v:ud v:nameU="ShapeClass" v:val="VT0(5):26"/>
				<v:ud v:nameU="ShapeType" v:val="VT0(12):26"/>
				<v:ud v:nameU="SolSH" v:val="VT15({BF0433D9-CD73-4EB5-8390-8653BE590246}):41"/>
				<v:ud v:nameU="visLegendShape" v:val="VT0(2):26"/>
			</v:userDefs>
			<title>Ethernet</title>
			<desc>HTTPS</desc>
			<g id="group17-41" v:mID="17" v:groupContext="group">
				<title>Sheet.17</title>
				<g id="shape17-42" v:mID="17" v:groupContext="groupContent">
					<path d="M-56.69 589.83 L-56.69 586.77 L137.48 586.77" class="st5"/>
					<path d="M35.43 507.4 L35.43 586.77 L137.48 586.77" class="st5"/>
					<path d="M177.17 507.4 L177.17 586.77 L137.48 586.77" class="st5"/>
					<path d="M106.3 507.4 L106.3 586.77 L137.48 586.77" class="st5"/>
					<path d="M248.03 507.4 L248.03 586.77 L137.48 586.77" class="st5"/>
					<path d="M68.74 586.77 L137.48 586.77" class="st5"/>
					<path d="M206.22 586.77 L137.48 586.77" class="st5"/>
					<path d="M68.74 586.77 L137.48 586.77" class="st5"/>
					<path d="M206.22 586.77 L137.48 586.77" class="st5"/>
					<path d="M68.74 586.77 L137.48 586.77" class="st5"/>
					<path d="M206.22 586.77 L137.48 586.77" class="st5"/>
					<path d="M68.74 586.77 L137.48 586.77" class="st5"/>
					<path d="M206.22 586.77 L137.48 586.77" class="st5"/>
					<path d="M68.74 586.77 L137.48 586.77" class="st5"/>
					<path d="M206.22 586.77 L137.48 586.77" class="st5"/>
					<path d="M68.74 586.77 L137.48 586.77" class="st5"/>
					<path d="M206.22 586.77 L137.48 586.77" class="st5"/>
					<path d="M68.74 586.77 L137.48 586.77" class="st5"/>
					<path d="M206.22 586.77 L137.48 586.77" class="st5"/>
					<path d="M68.74 586.77 L137.48 586.77" class="st5"/>
					<path d="M206.22 586.77 L137.48 586.77" class="st5"/>
					<path d="M68.74 586.77 L137.48 586.77" class="st5"/>
					<path d="M206.22 586.77 L137.48 586.77" class="st5"/>
					<path d="M68.74 586.77 L137.48 586.77" class="st5"/>
					<path d="M206.22 586.77 L137.48 586.77" class="st5"/>
					<path d="M68.74 586.77 L137.48 586.77" class="st5"/>
					<path d="M206.22 586.77 L137.48 586.77" class="st5"/>
					<path d="M68.74 586.77 L137.48 586.77" class="st5"/>
					<path d="M206.22 586.77 L137.48 586.77" class="st5"/>
					<path d="M68.74 586.77 L137.48 586.77" class="st5"/>
					<path d="M206.22 586.77 L137.48 586.77" class="st5"/>
					<path d="M68.74 586.77 L137.48 586.77" class="st5"/>
					<path d="M206.22 586.77 L137.48 586.77" class="st5"/>
					<path d="M68.74 586.77 L137.48 586.77" class="st5"/>
					<path d="M206.22 586.77 L137.48 586.77" class="st5"/>
					<path d="M68.74 586.77 L137.48 586.77" class="st5"/>
					<path d="M206.22 586.77 L137.48 586.77" class="st5"/>
					<path d="M68.74 586.77 L137.48 586.77" class="st5"/>
					<path d="M206.22 586.77 L137.48 586.77" class="st5"/>
					<path d="M68.74 586.77 L137.48 586.77" class="st5"/>
					<path d="M206.22 586.77 L137.48 586.77" class="st5"/>
					<path d="M68.74 586.77 L137.48 586.77" class="st5"/>
					<path d="M206.22 586.77 L137.48 586.77" class="st5"/>
					<path d="M68.74 586.77 L137.48 586.77" class="st5"/>
					<path d="M206.22 586.77 L137.48 586.77" class="st5"/>
					<path d="M68.74 586.77 L137.48 586.77" class="st5"/>
					<path d="M206.22 586.77 L137.48 586.77" class="st5"/>
					<path d="M68.74 586.77 L137.48 586.77" class="st5"/>
					<path d="M206.22 586.77 L137.48 586.77" class="st5"/>
					<path d="M68.74 586.77 L137.48 586.77" class="st5"/>
					<path d="M206.22 586.77 L137.48 586.77" class="st5"/>
					<path d="M68.74 586.77 L137.48 586.77" class="st5"/>
					<path d="M206.22 586.77 L137.48 586.77" class="st5"/>
					<path d="M68.74 586.77 L137.48 586.77" class="st5"/>
					<path d="M206.22 586.77 L137.48 586.77" class="st5"/>
					<path d="M68.74 586.77 L137.48 586.77" class="st5"/>
					<path d="M206.22 586.77 L137.48 586.77" class="st5"/>
					<path d="M68.74 586.77 L137.48 586.77" class="st5"/>
					<path d="M206.22 586.77 L137.48 586.77" class="st5"/>
					<path d="M68.74 586.77 L137.48 586.77" class="st5"/>
					<path d="M206.22 586.77 L137.48 586.77" class="st5"/>
					<path d="M68.74 586.77 L137.48 586.77" class="st5"/>
					<path d="M206.22 586.77 L137.48 586.77" class="st5"/>
					<path d="M68.74 586.77 L137.48 586.77" class="st5"/>
				</g>
			</g>
			<g id="shape18-108" v:mID="18" v:groupContext="shape">
				<title>Sheet.18</title>
				<v:userDefs>
					<v:ud v:nameU="EllipseSize" v:prompt="" v:val="VT0(0.098425196850394):24"/>
				</v:userDefs>
				<path d="M-53.15 589.83 A3.54331 3.54331 -180 1 0 -60.24 589.83 A3.54331 3.54331 -180 1 0 -53.15 589.83 ZM38.98 507.4
							 A3.54331 3.54331 -180 1 0 31.89 507.4 A3.54331 3.54331 -180 1 0 38.98 507.4 ZM180.71 507.4 A3.54331
							 3.54331 -180 1 0 173.62 507.4 A3.54331 3.54331 -180 1 0 180.71 507.4 ZM109.84 507.4 A3.54331 3.54331
							 -180 1 0 102.76 507.4 A3.54331 3.54331 -180 1 0 109.84 507.4 ZM251.57 507.4 A3.54331 3.54331 -180 1
							 0 244.49 507.4 A3.54331 3.54331 -180 1 0 251.57 507.4 ZM72.28 586.77 A3.54331 3.54331 -180 1 0 65.2
							 586.77 A3.54331 3.54331 -180 1 0 72.28 586.77 ZM209.76 586.77 A3.54331 3.54331 -180 1 0 202.68 586.77
							 A3.54331 3.54331 -180 1 0 209.76 586.77 ZM72.28 586.77 A3.54331 3.54331 -180 1 0 65.2 586.77 A3.54331
							 3.54331 -180 1 0 72.28 586.77 ZM209.76 586.77 A3.54331 3.54331 -180 1 0 202.68 586.77 A3.54331 3.54331
							 -180 1 0 209.76 586.77 ZM72.28 586.77 A3.54331 3.54331 -180 1 0 65.2 586.77 A3.54331 3.54331 -180 1
							 0 72.28 586.77 ZM209.76 586.77 A3.54331 3.54331 -180 1 0 202.68 586.77 A3.54331 3.54331 -180 1 0 209.76
							 586.77 ZM72.28 586.77 A3.54331 3.54331 -180 1 0 65.2 586.77 A3.54331 3.54331 -180 1 0 72.28 586.77 ZM209.76
							 586.77 A3.54331 3.54331 -180 1 0 202.68 586.77 A3.54331 3.54331 -180 1 0 209.76 586.77 ZM72.28 586.77
							 A3.54331 3.54331 -180 1 0 65.2 586.77 A3.54331 3.54331 -180 1 0 72.28 586.77 ZM209.76 586.77 A3.54331
							 3.54331 -180 1 0 202.68 586.77 A3.54331 3.54331 -180 1 0 209.76 586.77 ZM72.28 586.77 A3.54331 3.54331
							 -180 1 0 65.2 586.77 A3.54331 3.54331 -180 1 0 72.28 586.77 ZM209.76 586.77 A3.54331 3.54331 -180 1
							 0 202.68 586.77 A3.54331 3.54331 -180 1 0 209.76 586.77 ZM72.28 586.77 A3.54331 3.54331 -180 1 0 65.2
							 586.77 A3.54331 3.54331 -180 1 0 72.28 586.77 ZM209.76 586.77 A3.54331 3.54331 -180 1 0 202.68 586.77
							 A3.54331 3.54331 -180 1 0 209.76 586.77 ZM72.28 586.77 A3.54331 3.54331 -180 1 0 65.2 586.77 A3.54331
							 3.54331 -180 1 0 72.28 586.77 ZM209.76 586.77 A3.54331 3.54331 -180 1 0 202.68 586.77 A3.54331 3.54331
							 -180 1 0 209.76 586.77 ZM72.28 586.77 A3.54331 3.54331 -180 1 0 65.2 586.77 A3.54331 3.54331 -180 1
							 0 72.28 586.77 ZM209.76 586.77 A3.54331 3.54331 -180 1 0 202.68 586.77 A3.54331 3.54331 -180 1 0 209.76
							 586.77 ZM72.28 586.77 A3.54331 3.54331 -180 1 0 65.2 586.77 A3.54331 3.54331 -180 1 0 72.28 586.77 ZM209.76
							 586.77 A3.54331 3.54331 -180 1 0 202.68 586.77 A3.54331 3.54331 -180 1 0 209.76 586.77 ZM72.28 586.77
							 A3.54331 3.54331 -180 1 0 65.2 586.77 A3.54331 3.54331 -180 1 0 72.28 586.77 ZM209.76 586.77 A3.54331
							 3.54331 -180 1 0 202.68 586.77 A3.54331 3.54331 -180 1 0 209.76 586.77 ZM72.28 586.77 A3.54331 3.54331
							 -180 1 0 65.2 586.77 A3.54331 3.54331 -180 1 0 72.28 586.77 ZM209.76 586.77 A3.54331 3.54331 -180 1
							 0 202.68 586.77 A3.54331 3.54331 -180 1 0 209.76 586.77 ZM72.28 586.77 A3.54331 3.54331 -180 1 0 65.2
							 586.77 A3.54331 3.54331 -180 1 0 72.28 586.77 ZM209.76 586.77 A3.54331 3.54331 -180 1 0 202.68 586.77
							 A3.54331 3.54331 -180 1 0 209.76 586.77 ZM72.28 586.77 A3.54331 3.54331 -180 1 0 65.2 586.77 A3.54331
							 3.54331 -180 1 0 72.28 586.77 ZM209.76 586.77 A3.54331 3.54331 -180 1 0 202.68 586.77 A3.54331 3.54331
							 -180 1 0 209.76 586.77 ZM72.28 586.77 A3.54331 3.54331 -180 1 0 65.2 586.77 A3.54331 3.54331 -180 1
							 0 72.28 586.77 ZM209.76 586.77 A3.54331 3.54331 -180 1 0 202.68 586.77 A3.54331 3.54331 -180 1 0 209.76
							 586.77 ZM72.28 586.77 A3.54331 3.54331 -180 1 0 65.2 586.77 A3.54331 3.54331 -180 1 0 72.28 586.77 ZM209.76
							 586.77 A3.54331 3.54331 -180 1 0 202.68 586.77 A3.54331 3.54331 -180 1 0 209.76 586.77 ZM72.28 586.77
							 A3.54331 3.54331 -180 1 0 65.2 586.77 A3.54331 3.54331 -180 1 0 72.28 586.77 ZM209.76 586.77 A3.54331
							 3.54331 -180 1 0 202.68 586.77 A3.54331 3.54331 -180 1 0 209.76 586.77 ZM72.28 586.77 A3.54331 3.54331
							 -180 1 0 65.2 586.77 A3.54331 3.54331 -180 1 0 72.28 586.77 ZM209.76 586.77 A3.54331 3.54331 -180 1
							 0 202.68 586.77 A3.54331 3.54331 -180 1 0 209.76 586.77 ZM72.28 586.77 A3.54331 3.54331 -180 1 0 65.2
							 586.77 A3.54331 3.54331 -180 1 0 72.28 586.77 ZM209.76 586.77 A3.54331 3.54331 -180 1 0 202.68 586.77
							 A3.54331 3.54331 -180 1 0 209.76 586.77 ZM72.28 586.77 A3.54331 3.54331 -180 1 0 65.2 586.77 A3.54331
							 3.54331 -180 1 0 72.28 586.77 ZM209.76 586.77 A3.54331 3.54331 -180 1 0 202.68 586.77 A3.54331 3.54331
							 -180 1 0 209.76 586.77 ZM72.28 586.77 A3.54331 3.54331 -180 1 0 65.2 586.77 A3.54331 3.54331 -180 1
							 0 72.28 586.77 ZM209.76 586.77 A3.54331 3.54331 -180 1 0 202.68 586.77 A3.54331 3.54331 -180 1 0 209.76
							 586.77 ZM72.28 586.77 A3.54331 3.54331 -180 1 0 65.2 586.77 A3.54331 3.54331 -180 1 0 72.28 586.77 ZM209.76
							 586.77 A3.54331 3.54331 -180 1 0 202.68 586.77 A3.54331 3.54331 -180 1 0 209.76 586.77 ZM72.28 586.77
							 A3.54331 3.54331 -180 1 0 65.2 586.77 A3.54331 3.54331 -180 1 0 72.28 586.77 ZM209.76 586.77 A3.54331
							 3.54331 -180 1 0 202.68 586.77 A3.54331 3.54331 -180 1 0 209.76 586.77 ZM72.28 586.77 A3.54331 3.54331
							 -180 1 0 65.2 586.77 A3.54331 3.54331 -180 1 0 72.28 586.77 ZM209.76 586.77 A3.54331 3.54331 -180 1
							 0 202.68 586.77 A3.54331 3.54331 -180 1 0 209.76 586.77 ZM72.28 586.77 A3.54331 3.54331 -180 1 0 65.2
							 586.77 A3.54331 3.54331 -180 1 0 72.28 586.77 ZM209.76 586.77 A3.54331 3.54331 -180 1 0 202.68 586.77
							 A3.54331 3.54331 -180 1 0 209.76 586.77 ZM72.28 586.77 A3.54331 3.54331 -180 1 0 65.2 586.77 A3.54331
							 3.54331 -180 1 0 72.28 586.77 ZM209.76 586.77 A3.54331 3.54331 -180 1 0 202.68 586.77 A3.54331 3.54331
							 -180 1 0 209.76 586.77 ZM72.28 586.77 A3.54331 3.54331 -180 1 0 65.2 586.77 A3.54331 3.54331 -180 1
							 0 72.28 586.77 ZM209.76 586.77 A3.54331 3.54331 -180 1 0 202.68 586.77 A3.54331 3.54331 -180 1 0 209.76
							 586.77 ZM72.28 586.77 A3.54331 3.54331 -180 1 0 65.2 586.77 A3.54331 3.54331 -180 1 0 72.28 586.77 ZM209.76
							 586.77 A3.54331 3.54331 -180 1 0 202.68 586.77 A3.54331 3.54331 -180 1 0 209.76 586.77 ZM72.28 586.77
							 A3.54331 3.54331 -180 1 0 65.2 586.77 A3.54331 3.54331 -180 1 0 72.28 586.77 ZM209.76 586.77 A3.54331
							 3.54331 -180 1 0 202.68 586.77 A3.54331 3.54331 -180 1 0 209.76 586.77 ZM72.28 586.77 A3.54331 3.54331
							 -180 1 0 65.2 586.77 A3.54331 3.54331 -180 1 0 72.28 586.77 Z" class="st1"/>
			</g>
			<g id="shape19-110" v:mID="19" v:groupContext="shape">
				<title>Sheet.19</title>
				<rect x="0" y="578.268" width="274.961" height="17.0079" class="st1"/>
			</g>
			<g id="shape16-112" v:mID="16" v:groupContext="groupContent">
				<v:textBlock v:margins="rect(4,4,4,4)" v:tabSpace="42.5197"/>
				<v:textRect cx="137.48" cy="613.276" width="36.01" height="20.0036" transform="rotate(90)"/>
				<text x="600.41" y="-134.48" transform="rotate(90)" class="st6" v:langID="1033"><v:paragraph v:horizAlign="1"/><v:tabList/>HTTPS</text>			</g>
		</g>
	</g>
</svg>
